<svg width="486" height="486" viewBox="0 0 486 486" fill="none" xmlns="http://www.w3.org/2000/svg">
<g clip-path="url(#clip0_2_61)">
<path d="M243 9C113.765 9 9 113.765 9 243C9 372.235 113.765 477 243 477C372.235 477 477 372.235 477 243C477 113.765 372.235 9 243 9Z" fill="#6D6BC9" fill-opacity="0.5" stroke="#BBCACD" stroke-width="18"/>
<path d="M272 463C163.2 463 75 364.727 75 243.5C75 122.273 163.2 24 272 24C380.8 24 469 122.273 469 243.5C469 364.727 380.8 463 272 463Z" fill="#BBCACD"/>
</g>
<defs>
<clipPath id="clip0_2_61">
<rect width="486" height="486" fill="white" transform="matrix(-1 0 0 1 486 0)"/>
</clipPath>
</defs>
</svg>
