<svg width="486" height="486" viewBox="0 0 486 486" fill="none" xmlns="http://www.w3.org/2000/svg">
<g clip-path="url(#clip0_2_71)">
<path d="M243 9C372.235 9 477 113.765 477 243C477 372.235 372.235 477 243 477C113.765 477 9 372.235 9 243C9 113.765 113.765 9 243 9Z" fill="#BBCACD" stroke="#BBCACD" stroke-width="18"/>
<path d="M215 462C323.248 462 411 364.174 411 243.5C411 122.826 323.248 25 215 25C106.752 25 19 122.826 19 243.5C19 364.174 106.752 462 215 462Z" fill="#6D6BC9" fill-opacity="0.5"/>
</g>
<defs>
<clipPath id="clip0_2_71">
<rect width="486" height="486" fill="white" transform="matrix(-1 0 0 1 486 0)"/>
</clipPath>
</defs>
</svg>
